<svg version="1.1" viewBox="0.0 0.0 866.4435695538058 652.2992125984252" fill="none" stroke="none" stroke-linecap="square" stroke-miterlimit="10" xmlns:xlink="http://www.w3.org/1999/xlink" xmlns="http://www.w3.org/2000/svg"><clipPath id="p.0"><path d="m0 0l866.44354 0l0 652.2992l-866.44354 0l0 -652.2992z" clip-rule="nonzero"/></clipPath><g clip-path="url(#p.0)"><path fill="#000000" fill-opacity="0.0" d="m0 0l866.44354 0l0 652.2992l-866.44354 0z" fill-rule="evenodd"/><g filter="url(#shadowFilter-p.1)"><use xlink:href="#p.1" transform="matrix(1.0 0.0 0.0 1.0 0.0 2.0)"/></g><defs><filter id="shadowFilter-p.1" filterUnits="userSpaceOnUse"><feGaussianBlur in="SourceAlpha" stdDeviation="2.0" result="blur"/><feComponentTransfer in="blur" color-interpolation-filters="sRGB"><feFuncR type="linear" slope="0" intercept="0.0"/><feFuncG type="linear" slope="0" intercept="0.0"/><feFuncB type="linear" slope="0" intercept="0.0"/><feFuncA type="linear" slope="0.5" intercept="0"/></feComponentTransfer></filter></defs><g id="p.1"><path fill="#43c7d9" d="m110.21785 178.85039l0 0c0 -78.694046 60.6707 -142.48819 135.51181 -142.48819l0 0c35.939957 0 70.40791 15.012104 95.821304 41.733826c25.413422 26.721718 39.69049 62.96415 39.69049 100.75436l0 0c0 78.694046 -60.670685 142.4882 -135.5118 142.4882l0 0c-74.84111 0 -135.51181 -63.79416 -135.51181 -142.4882z" fill-rule="evenodd"/><path stroke="#4df8de" stroke-width="2.0" stroke-linejoin="round" stroke-linecap="butt" d="m110.21785 178.85039l0 0c0 -78.694046 60.6707 -142.48819 135.51181 -142.48819l0 0c35.939957 0 70.40791 15.012104 95.821304 41.733826c25.413422 26.721718 39.69049 62.96415 39.69049 100.75436l0 0c0 78.694046 -60.670685 142.4882 -135.5118 142.4882l0 0c-74.84111 0 -135.51181 -63.79416 -135.51181 -142.4882z" fill-rule="evenodd"/></g><g filter="url(#shadowFilter-p.2)"><use xlink:href="#p.2" transform="matrix(1.0 0.0 0.0 1.0 0.0 5.0)"/></g><defs><filter id="shadowFilter-p.2" filterUnits="userSpaceOnUse"><feGaussianBlur in="SourceAlpha" stdDeviation="3.0" result="blur"/><feComponentTransfer in="blur" color-interpolation-filters="sRGB"><feFuncR type="linear" slope="0" intercept="0.0"/><feFuncG type="linear" slope="0" intercept="0.0"/><feFuncB type="linear" slope="0" intercept="0.0"/><feFuncA type="linear" slope="0.5" intercept="0"/></feComponentTransfer></filter></defs><g id="p.2"><path fill="#43c7d9" d="m349.11285 587.2913l134.749 -550.92914l236.33762 0l-134.74896 550.92914z" fill-rule="evenodd"/><path stroke="#4df8de" stroke-width="2.0" stroke-linejoin="round" stroke-linecap="butt" d="m349.11285 587.2913l134.749 -550.92914l236.33762 0l-134.74896 550.92914z" fill-rule="evenodd"/></g></g></svg>